<svg xmlns="http://www.w3.org/2000/svg" xmlns:xlink="http://www.w3.org/1999/xlink" width="178.721" height="60.529" viewBox="0 0 178.721 60.529"><defs><clipPath id="a"><rect width="178.721" height="60.529" fill="none"/></clipPath></defs><g transform="translate(0 0)"><g transform="translate(0 0)" clip-path="url(#a)"><path d="M25.058,0H143.246a30.264,30.264,0,1,1,0,60.529H25.058A30.264,30.264,0,1,0,25.058,0" transform="translate(5.209 0)" fill="#333" fill-rule="evenodd"/><path d="M0,0H30.267a30.264,30.264,0,0,1,0,60.529H0Z" transform="translate(0 0)" fill="#33a02c" fill-rule="evenodd"/><path d="M140.389,20.294a1.569,1.569,0,0,1-1.619,1.085,1.732,1.732,0,0,1-1.791-1.62h5.086c0-.028.029-.318.029-.592,0-2.283-1.315-3.685-3.511-3.685a3.57,3.57,0,0,0-3.5,3.743,3.6,3.6,0,0,0,3.671,3.8,3.2,3.2,0,0,0,3.238-2.254Zm-3.366-1.849a1.538,1.538,0,0,1,1.59-1.4,1.43,1.43,0,0,1,1.59,1.4Zm-8.324.795a1.785,1.785,0,0,1,1.762-1.994,1.762,1.762,0,0,1,1.749,1.98,1.774,1.774,0,1,1-3.511.014m5.376-6.893h-1.894v4.061a2.128,2.128,0,0,0-2.009-.882,3.476,3.476,0,0,0-3.411,3.714,3.5,3.5,0,0,0,3.469,3.743,2.227,2.227,0,0,0,1.994-1,4.9,4.9,0,0,0,.072.824h1.835c-.029-.289-.057-.809-.057-1.286Zm-14.524,3.136a3.641,3.641,0,0,0-3.728,3.772,3.728,3.728,0,1,0,7.456,0,3.642,3.642,0,0,0-3.729-3.772m0,5.8a1.833,1.833,0,0,1-1.806-2.023,1.818,1.818,0,1,1,3.613,0,1.825,1.825,0,0,1-1.807,2.023m-6.863-7.906a1.185,1.185,0,1,0,1.185-1.2,1.186,1.186,0,0,0-1.185,1.2m2.152,2.326h-1.922v7.111h1.922Zm-4.8,3.556a1.784,1.784,0,1,1-3.54,0,1.783,1.783,0,1,1,3.54,0m-3.513,6.3V22.115a2.5,2.5,0,0,0,2.052.867c2.01,0,3.353-1.59,3.353-3.743,0-2.11-1.2-3.7-3.281-3.7a2.488,2.488,0,0,0-2.183,1.027V15.7H104.61v9.856ZM100.94,13.371a1.185,1.185,0,1,0,1.185-1.2,1.187,1.187,0,0,0-1.185,1.2m2.154,2.326h-1.922v7.111h1.922ZM96.952,17.26a1.549,1.549,0,0,1,1.575,1.2l1.72-.579a3.254,3.254,0,0,0-3.339-2.4,3.64,3.64,0,0,0-3.685,3.772,3.679,3.679,0,0,0,3.743,3.771,3.3,3.3,0,0,0,3.324-2.4L98.6,20.063a1.626,1.626,0,0,1-1.633,1.2,1.831,1.831,0,0,1-1.82-2.009,1.808,1.808,0,0,1,1.806-1.994m-6.863-3.888a1.185,1.185,0,1,0,1.185-1.2,1.186,1.186,0,0,0-1.185,1.2M92.241,15.7H90.319v7.111h1.922Zm-7.9,3.021a1.338,1.338,0,0,1,1.329-1.474,1.25,1.25,0,0,1,1.315,1.416v4.148H88.9v-4.48c0-1.561-.809-2.818-2.572-2.818A2.361,2.361,0,0,0,84.28,16.58V15.7H82.415v7.111h1.923Zm-5.2,4.09H80.97a11.649,11.649,0,0,1-.072-1.286V15.7H78.976v4.133a1.283,1.283,0,0,1-1.343,1.4,1.265,1.265,0,0,1-1.3-1.431V15.7H74.41v4.5a2.619,2.619,0,0,0,2.7,2.8,2.247,2.247,0,0,0,1.965-.954,4.858,4.858,0,0,0,.058.766m-6.315,0V12.562H70.1l-3.006,7.4-3.078-7.4H61.389V22.809H63.3V15.685l2.948,7.124h1.662l2.948-7.182v7.182Z" transform="translate(12.762 2.53)" fill="#fff"/><path d="M136.22,29a5.738,5.738,0,0,0-5.874,5.943,5.875,5.875,0,1,0,11.749,0A5.738,5.738,0,0,0,136.22,29m0,9.13a2.888,2.888,0,0,1-2.846-3.188,2.865,2.865,0,1,1,5.693,0,2.875,2.875,0,0,1-2.847,3.188M121.764,34.1a2.11,2.11,0,0,1,2.094-2.323,1.97,1.97,0,0,1,2.072,2.232V40.54h3.028V33.481c0-2.458-1.274-4.44-4.052-4.44a3.724,3.724,0,0,0-3.234,1.685V29.338h-2.936v11.2h3.028Zm-8.81-8.424a1.867,1.867,0,1,0,1.866-1.89,1.871,1.871,0,0,0-1.866,1.89m3.392,3.666h-3.028v11.2h3.028Zm-4.324-.046a6.853,6.853,0,0,0-.705-.046A3.33,3.33,0,0,0,108.128,31V29.338h-2.938v11.2h3.028V35.418c0-2.415,1.343-3.165,2.892-3.165a4.52,4.52,0,0,1,.911.091ZM97.564,38.605a1.314,1.314,0,0,1-1.457-1.3A1.415,1.415,0,0,1,97.5,35.895l2.527-.387v.5a2.275,2.275,0,0,1-2.459,2.6m-4.485-1.116a3.537,3.537,0,0,0,3.847,3.37,3.745,3.745,0,0,0,3.3-1.662,7.537,7.537,0,0,0,.114,1.343h2.778a12.457,12.457,0,0,1-.137-1.777V33.254C102.984,31,101.662,29,98.111,29c-3.006,0-4.623,1.935-4.8,3.689l2.688.569a1.987,1.987,0,0,1,2.139-1.821c1.276,0,1.89.66,1.89,1.457,0,.388-.205.707-.842.8l-2.755.409c-1.867.274-3.347,1.389-3.347,3.393M91.441,24.055H88.413V40.539h3.028Zm-5.419,0H82.994V40.539h3.028Zm-8.81,1.617a1.867,1.867,0,1,0,1.867-1.89,1.872,1.872,0,0,0-1.867,1.89m3.393,3.666H77.577v11.2h3.028ZM69.04,36.4l-4.212-12H61.39L67.355,40.54h3.234L76.576,24.4H73.251Z" transform="translate(12.762 4.944)" fill="#fff"/><path d="M13.687,26.377c.24.162.628.319.858.5a.318.318,0,0,1,.138.19c.021.083-.027.236.1.348.1.081.482.162.576.245.123.111.261.225.394.341.117.1.045.132.147.236.059.06.239.227.285.291a1.982,1.982,0,0,0,.163.211,1.146,1.146,0,0,0,.46.238c.443.162.263.246.347.314.058.069.182.348.238.418a2.676,2.676,0,0,1,.258.327c.194.337.111.411.249.621.063.1.115.258.175.356.046.075.058.11.1.185s.114.24.153.308a4.434,4.434,0,0,1,.275.443c.021.048,0,.116.028.162.072.141.192.267.26.411.079.165.155.333.227.5.051.118.018.2.065.316.033.082.149.207.179.289.018.046.035.092.052.138.04.11-.034.221,0,.331.068.2.312.342.374.528.013.037.05.056.06.094s-.006.134.006.176.116.1.128.146-.076.2-.068.24c0,.016.01-.04.014-.022.05.2.265.319.252.523a1.861,1.861,0,0,0,.076.455c.016.083.1.315.069.393s-.094.138-.085.205c.018.123.034.246.05.371l-.727.086-.807.1c-.008-.07-.028-.129-.036-.2,0-.027.018-.069.014-.1-.016-.12-.092-.155-.11-.273-.006-.037-.072-.091-.077-.128-.014-.086.1-.147.1-.233a1.531,1.531,0,0,0-.057-.174c-.014-.066,0-.072-.018-.139-.007-.029-.016-.06-.022-.089s.087-.149.082-.17c-.018-.071-.043-.194-.063-.266s-.3-.1-.325-.182c-.033-.12-.024-.245-.059-.362-.023-.077-.048-.156-.072-.233a.492.492,0,0,1,.007-.248c.019-.063-.043-.127-.065-.19-.057-.161.007-.271-.056-.429-.056-.141-.252-.269-.252-.422s-.122-.24-.188-.379c-.019-.042-.069-.08-.059-.124.028-.133-.185-.338-.249-.461s-.139-.257-.211-.383c-.033-.058-.066-.081-.1-.138-.114-.237-.116-.058-.207-.284-.017-.105-.039-.068-.132-.083-.019-.029-.027-.251-.045-.278-.051-.079-.164.046-.221-.048-.069-.112-.069-.135-.139-.233-.05-.069-.014-.236-.076-.31a1.057,1.057,0,0,1-.169-.558c.007-.134-.377-.076-.487-.2-.012-.014-.027-.075-.04-.091-.064-.072-.112-.181-.179-.252s-.207.024-.3-.082c-.056-.062-.117-.122-.176-.181-.041-.041-.117-.059-.158-.1-.069-.069-.144-.082-.215-.149s-.034-.227-.1-.286-.118-.184-.19-.245-.192-.058-.271-.122-.064-.31-.155-.383Zm0-2.909c.132.072.192-.011.323.065s.308.035.437.115.209.28.333.362c.037.023.263.006.3.029.059.039.087.139.145.179s.105.072.157.108c.1.069.31.024.408.1s.225.165.336.25c.157.121.109.389.261.515a2.189,2.189,0,0,0,.277.155,3.712,3.712,0,0,1,.4.318c.092.082.185.167.275.251.037.036.163-.071.2-.035.058.056.089.127.149.184.116.114.234.175.347.291a3.631,3.631,0,0,1,.312.4c.1.133.164.422.26.552.058.079.072.244.124.307.069.081.238,0,.3.08.1.124.172.313.269.44.18.234.219.473.387.717.052.075.24.151.29.227.077.115.151.228.225.345.064.1.126.2.187.3.036.06.042.187.079.248.062.1-.066.261.01.356.108.134.417.213.517.494.028.077.076.32.112.394.086.172.169.173.249.348.054.118.108.2.159.319.03.072-.036.393-.006.464.14.337.337.535.457.883.037.108.034.242.068.349.04.124.079.248.116.372s-.022.332.016.469c.029.107.309.165.336.274.056.219.108.438.153.66.008.041-.04.089-.033.13.025.126-.062.271-.039.4.007.037.014.077.021.117.029.168.115.286.139.457.018.123.117.213.132.337,0,.027.112.054.116.081s-.068.24-.062.279c.11.65.028.358.031.517,0,.053.008.106.011.159.008.14-.105.331-.1.473.007.17.012.343.013.515l-.73.008-.731.008c0-.133-.029-.283-.024-.416.007-.265.128-.306.112-.436-.01-.089-.2-.144-.17-.24a.9.9,0,0,0,.047-.284c-.01-.117-.069-.162-.081-.277-.023-.205.1-.411.071-.614-.017-.11-.1-.22-.12-.329-.04-.232-.028-.464-.077-.693-.023-.1-.238-.106-.274-.208-.051-.147-.228-.356-.267-.5s0-.266-.045-.4c-.016-.054-.033-.11-.048-.163-.007-.025-.016-.052-.024-.077-.014-.051-.033-.1-.048-.151-.04-.123-.109-.215-.15-.336-.024-.069.021-.164,0-.233-.1-.262-.2-.523-.308-.778-.027-.064.017-.21-.011-.274-.041-.093-.138-.162-.18-.254-.087-.187-.052-.341-.145-.524-.112-.219-.2-.109-.316-.329-.025-.046-.242-.24-.268-.284-.052-.092-.071-.308-.126-.4s-.11-.176-.165-.263l-.062-.262-.094-.144a1.1,1.1,0,0,1-.172-.249c-.1-.289-.285-.269-.434-.461q-.187-.241-.383-.477c-.133-.161-.271-.319-.411-.476-.111-.123-.223-.246-.338-.367l-.162-.17c-.059-.06.006-.176-.059-.232-.093-.08-.3-.1-.429-.155a1.47,1.47,0,0,1-.376-.222c-.14-.13-.188-.313-.336-.437l-.114-.094c-.146-.121-.19-.36-.339-.475-.051-.039-.208.042-.26,0-.121-.091-.244-.181-.367-.268-.066-.046-.271-.128-.338-.174-.05-.035-.071.036-.122,0l-.141-.093c-.116-.075-.065-.38-.184-.454Zm0-2.8a.646.646,0,0,0,.168.08c.26.034.384.11.429.21.033.071.141.092.213.147s.141.047.2.08c.123.065.184.094.306.162.092.052.215.007.306.058.112.063.192.222.3.29.175.106.3.216.473.327.123.08.342.05.463.13.054.037.006.179.059.216s.292.013.341.048.2.2.238.228c.06.042.115.127.047.092-.147-.077.3.19.432.294.109.088.065.144.173.233s.187.157.28.236q.3.254.585.516l.208.192c.093.087.214.121.3.213s-.035.185.072.291c.083.083.356.318.446.4.063.059.147.047.205.11s.2.051.255.106c.074.081.047.225.12.307.087.1.048.187.134.277s.306.193.395.3c.047.058-.042.165,0,.223.126.155.385.3.506.458s.3.256.414.412c.1.134.117.323.21.46.068.1.135.2.2.306.116.18.3.342.413.524s.065.419.167.6c.138.246.332.186.46.438.047.093.105.428.15.521.058.118.116.267.172.387s.129.244.2.364c.117.2.172-.008.269.512.012.066-.033.135-.008.2a1.884,1.884,0,0,1,.126.382c.025.156.155.257.343.412.105.087.1.257.152.385s.092.227.128.344.069.233.1.35c.016.058.033.117.048.174.028.1.216.227.242.33.053.208.058.394.1.6.037.174.075.349.108.523.04.209-.174.281-.141.492.016.1.008.364.023.464s.215.373.228.48c.05.389-.248.682-.108,1.054a2.82,2.82,0,0,1,.158.928c0,.176-.108.325-.108.5l0,.006v.018l-.73,0-.731-.006v-.013h0c0-.239,0-.478-.013-.715-.006-.144.08-.126.071-.268-.018-.29-.181-.716-.211-1-.025-.242.082-.528.047-.767-.033-.222-.185-.42-.225-.64-.031-.167.05-.358.016-.524-.042-.2-.087-.277-.135-.472s-.143-.519-.194-.709c-.04-.145-.128-.245-.172-.389s-.025-.291-.072-.436a3.157,3.157,0,0,0-.354-.817c-.077-.106-.072-.257-.146-.367s-.069-.223-.134-.329-.2-.127-.219-.226c-.014-.083-.143-.2-.156-.3-.022-.173-.245-.347-.238-.469.017-.256-.428-.269-.552-.493-.066-.12.033-.329-.036-.447-.13-.225-.318-.349-.458-.568-.071-.111-.094-.323-.168-.432-.029-.043-.146-.062-.175-.105-.144-.209-.2-.441-.354-.644l-.04-.052c-.079-.105-.159-.123-.24-.227-.042-.054-.085-.2-.129-.251-.294-.333-.423-.384-.565-.551-.122-.144-.112-.332-.239-.47-.215-.232-.318-.547-.557-.767-.033-.03-.3-.086-.333-.116-.106-.1.023-.179-.085-.278s-.2-.219-.325-.325c-.165-.145-.372-.287-.542-.426-.041-.033-.187-.068-.228-.1-.147-.118-.248-.112-.4-.226-.092-.069-.185-.138-.278-.2s-.123-.25-.213-.312c-.115-.081-.233-.065-.35-.144-.051-.033-.1-.165-.141-.2a2.434,2.434,0,0,0-.292-.234c-.1-.062-.275-.022-.378-.082-.054-.033-.117-.114-.172-.145a5.058,5.058,0,0,1-.562-.355,1.884,1.884,0,0,0-.3-.155Zm1.205-2.273c.159.076.281.089.438.169.072.035.181.135.252.173s.051.114.126.153c.093.05.286.064.378.114s.146.019.228.065c.064.036.163.036.226.072s.087.169.139.2c.1.062.209.123.313.186l.1.064c.13.08.205.18.335.262.145.094.335.109.478.205.06.041.175.056.236.1.081.057.117.2.2.261l.266.191c.065.05.133.1.2.147l.106.08c.1.075.2.15.294.227.079.06.155.122.232.184.128.1.271.018.4.124s.209.379.32.476c.059.052.159.08.176.156.059.277.251.332.435.4.1.037.143.168.2.263.121.2.33.283.43.5.048.105.226.071.356.12s.1.169.252.332c.036.039.261.081.3.173a1.61,1.61,0,0,0,.155.332c.116.136.233.28.345.428.1.128.193.257.284.387.042.06.086.118.13.175.082.105.062.21.141.316.1.14.31.157.412.3.116.163.338.349.451.516s.1.413.194.569c.168.265.332.534.489.806a2.456,2.456,0,0,0,.434.524c.132.126.088.428.17.592.047.091.093.182.138.274.112.231.308.35.414.586.082.184.161.367.238.553s.252.331.325.518c.041.108-.039.257-.024.366.021.147-.031.172.021.321.041.122.243.226.307.349.092.18-.054.678.087.806a1.6,1.6,0,0,1,.281.591c.037.141.138.248.173.39.07.284.161.471.22.759.018.089-.064.33-.047.418.037.192.186.085.18.53a6.732,6.732,0,0,0,.219.815c0,.022-.089.185-.092.207l-.024.3c-.028.349.176.463.2.815.033.466-.169.983-.164,1.458l-.73,0-.731.006L26.34,38.3l-.074-.551c-.006-.105.083-.285.068-.4a2.314,2.314,0,0,1-.1-.406c.018-.248.1-.344.029-.557L26.134,36c-.043-.135.034-.283.011-.422s-.048-.292-.075-.436c-.043-.233-.016-.478-.065-.709-.065-.3-.316-.54-.287-.843a1.2,1.2,0,0,1-.176-.374c-.029-.146.035-.339.014-.5a1.771,1.771,0,0,0-.111-.575c-.144-.085-.207-.255-.289-.327a.463.463,0,0,1-.2-.435,1.473,1.473,0,0,0-.176-.746c-.116-.272-.217-.645-.344-.911-.1-.207-.257-.295-.374-.493a1.676,1.676,0,0,1-.225-.524,1.659,1.659,0,0,0-.459-.837,2.128,2.128,0,0,1-.174-.233c-.116-.181-.316-.134-.437-.312-.089-.134-.265-.329-.358-.459A7.2,7.2,0,0,1,22,26.115c-.052-.1.018-.275-.164-.281-.08,0-.048-.3-.1-.359a1.053,1.053,0,0,0-.342-.28c-.132-.064-.146-.118-.3-.237-.17-.129-.277-.4-.576-.719a5.269,5.269,0,0,0-.705-.707l-.333-.242.042-.149-.242-.228c-.115-.109-.3-.069-.428-.155-.089-.062-.152-.17-.24-.242s-.19-.223-.3-.3c-.046-.031-.082.034-.126,0s-.159-.082-.217-.127c-.074-.056-.114-.22-.188-.275l-.116-.085c-.057-.041-.231.052-.287.012s-.134-.164-.205-.214c-.114-.077-.261-.237-.4-.313-.081-.045-.159-.007-.226-.051-.136-.088-.138-.248-.254-.332-.08-.06-.182-.219-.28-.277-.054-.033-.091.035-.145,0l-.091-.052-.182-.1c-.1-.056-.2-.147-.3-.2-.122-.065-.309-.006-.432-.069-.1-.053-.143-.2-.246-.246-.269-.134-.544-.263-.82-.385Zm1.893-1.929q.315.163.624.335c.072.04.226,0,.3.041.133.075.186.233.318.31.156.092.238.226.391.321s.4.164.56.268c.265.173.507.4.765.58.178.124.374.205.547.335.292.219.08.2.257.366.1.1.267.1.374.184l.3.238c.085.068.193.022.277.089.048.04.075.156.122.194s.071.059.1.088c.15.13.345.262.394.428a.673.673,0,0,0,.1.2c.052.071.221.021.292.083.04.036.175.2.217.239.079.065.159.134.237.211.167.164.4.292.559.461l.181.191c.153.164.307.236.458.4.043.051.089.2.133.249.115.13.228.263.339.4s.181.18.281.3c.04.05.071.091.1.127.086.117.174.046.3.208.037.048.042.219.08.267l.139.184c.074.1.147.2.219.3s.159.221.238.332c.059.085.162.094.221.18a.77.77,0,0,0,.126.3c.034.051.068.1.1.152l.112.173c.082.129.22.217.3.348.047.076.05.24.1.318q.085.141.17.286l.112.193a2.481,2.481,0,0,1,.144.37,1.335,1.335,0,0,0,.075.176c.057.1.112.207.167.31.081.152.179.182.256.335.028.056.134.086.162.141.051.1,0,.358.052.461.071.149.239.2.307.347s.029.387.089.528c.027.063.094.1.121.164.033.077.008.179.04.256.017.043.093.064.11.109.035.086.028.2.062.283s.188.161.223.254c.105.28.141.589.237.875.072.216.161.4.227.618.025.083.051.167.075.251s.042.146.064.219c.046.167.093.333.136.5.018.071.037.144.054.215.023.089.116.17.136.26.018.072-.035.155-.018.227.03.129.059.26.087.389.021.1-.029.225-.01.32.01.047.088.059.1.106.014.072.029.147.042.22.025.133.163.267.186.4s-.075.279-.046.417c.04.194.191.407.173.547a2.649,2.649,0,0,0,0,.587c.019.173-.058.347-.042.521.021.236.172.493.186.73.008.153-.059.307-.052.461.016.367-.033.717-.033,1.09l0,.006v.186l-.731-.008-.731-.008v-.175h0c0-.2-.079-.4-.083-.605,0-.122.069-.243.064-.365-.011-.261-.035-.488-.065-.728-.024-.186.023-.388-.006-.573-.04-.254-.157-.511-.193-.782a2.1,2.1,0,0,0-.117-.79c-.057-.1.291-.242.031-.453q-.027-.154-.058-.308c-.024-.123-.05-.246-.075-.368s-.193-.112-.217-.221.064-.329.039-.434c-.019-.085.019-.211,0-.3-.016-.064-.08-.091-.1-.153s-.028-.106-.042-.159c-.033-.122-.066-.244-.1-.365-.03-.105-.029-.146-.06-.251-.023-.077.079-.219.054-.3-.029-.093-.216-.187-.246-.28-.054-.168-.141-.341-.2-.5-.019-.052-.042-.1-.066-.153-.042-.088-.112-.162-.147-.252a.892.892,0,0,1-.01-.207,1.019,1.019,0,0,0-.033-.223,2.662,2.662,0,0,0-.1-.265c-.028-.066-.088-.076-.111-.146-.01-.033.008-.132-.03-.164-.092-.079-.025-.211-.064-.266a3.838,3.838,0,0,1-.367-.661c-.037-.081-.077-.163-.117-.243s-.147-.116-.19-.2c-.056-.111-.048-.223-.106-.333-.045-.087-.092-.174-.138-.26s-.08-.22-.13-.321c-.059-.121-.139-.216-.2-.323-.04-.066-.079-.134-.117-.2-.059-.1-.21-.18-.271-.279-.081-.134-.075-.287-.158-.419-.05-.077-.1-.155-.15-.231-.031-.05-.064-.1-.1-.147s-.1-.283-.139-.343c-.087-.129-.161-.1-.25-.225s-.168-.233-.249-.345c-.146-.2-.367-.118-.5-.35-.068-.12-.216-.467-.285-.587-.1-.178-.325-.269-.447-.414-.093-.11-.079-.287-.181-.377a3.994,3.994,0,0,0-.332-.26,3.59,3.59,0,0,1-.509-.37c-.121-.126-.208-.272-.33-.394-.151-.15-.192-.339-.345-.484-.04-.039-.2,0-.236-.039-.077-.071-.146-.292-.225-.361-.029-.028-.06-.056-.091-.083-.1-.093-.1-.138-.2-.231-.135-.117-.323-.217-.461-.332s-.248-.192-.393-.306-.31-.13-.447-.232-.168-.416-.3-.506-.329-.1-.46-.194c-.064-.043-.14-.194-.2-.237-.17-.114-.237-.111-.409-.221-.062-.039-.24-.2-.3-.243-.108-.068-.2-.021-.308-.086-.192-.117-.3-.238-.494-.35-.136-.077-.216-.232-.354-.307-.112-.062-.285-.045-.4-.1-.174-.092-.349-.18-.525-.267l0,0ZM18.77,14.44c.205.114.407.229.609.348.336.2.653.308.981.519.129.083.275.265.4.35s.284.192.425.29.257.081.393.179c.159.115.338.323.5.418a5.061,5.061,0,0,1,.647.42c.122.1.24.2.358.31.164.151.325.312.484.472.111.112.222.226.333.336s.144.236.248.331c.085.079.265.094.349.173.167.158.373.287.536.449.034.033.068.068.1.1s-.039.1-.017.121.133,0,.156.021.047.046.069.069c0,0-.03.147.029.209.041.042.173,0,.2.031.165.174.287.321.438.507.039.047.232.127.273.172.01.011-.019.106-.011.118.062.082.006.121.074.2s.2.14.271.227c.058.068.052.217.11.286.085.1.233.124.316.227q.25.31.492.626c.117.153.314.277.428.434.082.111.083.256.164.368.279.394.5.829.761,1.237.059.093.118.187.175.281.19.308.419.509.592.825.072.132.064.329.134.461s.215.2.281.329c.036.075-.006.118.03.192.12.244.267.634.378.881.1.216.223.4.314.618.058.138.115.277.17.414.077.193.169.324.243.519.089.238.13.575.215.817.039.115.143.15.181.265.06.18.121.395.18.579.017.053.034.109.051.163s.043.138.065.207c.128.418.272.872.4,1.309.03.106.059.213.087.316s.057.21.077.3c.028.121.1.274.123.4.205.257.035.458.08.719.04.225.082.452.132.68.035.155.069.312.1.469.029.139.191.263.22.4a7.265,7.265,0,0,1,.155,1.249c0,.138.072.345.07.493,0,.277-.056.509-.088.839-.011.114.076.181.08.3.011.324.164.813.164,1.139,0,.219-.069.337-.076.582,0,.149-.008.3-.016.461a.678.678,0,0,1-.087.349c-.091.174.008.35.018.527,0,.1-.174.192-.18.271l-.588-.046-.143-.011-.731-.058c.012-.143.022-.283.031-.418s.065-.245.071-.364-.037-.208-.034-.307v-.011c.007-.161.012-.33.016-.507s-.094-.347-.094-.551c0-.093-.041-.117-.033-.205.006-.072-.071-.178-.066-.254,0-.037.123-.124.123-.164a1.614,1.614,0,0,0-.023-.4,6.553,6.553,0,0,1-.1-.922c-.011-.163-.024-.326-.039-.489-.023-.265-.132-.545-.163-.808-.04-.344.039-.686-.014-1.025-.022-.138-.173-.116-.2-.252-.017-.1.092-.362.072-.464-.091-.487-.275-.668-.393-1.145-.036-.149-.074-.551-.112-.7s-.22-.33-.258-.47c-.071-.255,0-.46-.083-.711-.06-.192-.123-.385-.188-.575-.04-.118-.036-.394-.077-.511s-.162-.094-.209-.221c-.034-.091-.086-.248-.121-.339a1.138,1.138,0,0,0-.069-.146c-.025-.047.092-.109.063-.156s-.187-.089-.221-.14-.06-.091-.088-.135a1.566,1.566,0,0,1-.136-.257c-.083-.2-.071-.5-.157-.7-.043-.1-.121-.08-.165-.182-.118-.269-.395-.539-.522-.8-.114-.239-.164-.482-.286-.717-.085-.164-.146-.295-.205-.419-.046-.1-.046-.231-.1-.332-.039-.071-.132-.03-.184-.116-.025-.042,0-.229-.022-.3a1.242,1.242,0,0,0-.175-.256c-.08-.123-.228-.246-.308-.368-.042-.064-.2-.133-.251-.26-.019-.041-.014-.12-.065-.18a.707.707,0,0,0-.2-.135c-.072-.041-.1-.138-.144-.205-.269-.385-.362-.617-.609-.941-.071-.093-.129-.408-.216-.515-.047-.058-.116.087-.165.014-.077-.112-.156-.3-.233-.387-.169-.2-.321-.383-.5-.579-.117-.13-.238-.262-.358-.39-.056-.06-.209-.12-.266-.18-.161-.168-.316-.248-.482-.412-.365-.364-.74-.638-1.126-.98-.132-.117-.266-.233-.4-.348-.071-.06-.017-.234-.089-.295-.108-.091-.287-.116-.4-.208a1.2,1.2,0,0,0-.239-.164,5.081,5.081,0,0,1-.827-.628c-.1-.071-.036-.238-.135-.307-.232-.165-.594-.31-.832-.467-.082-.054-.117-.14-.2-.194a3.338,3.338,0,0,0-.332-.105.523.523,0,0,1-.254-.2c-.182-.321-.431-.26-.65-.384s-.319-.269-.546-.39l-.012-.007Zm1.863-1.9a4.092,4.092,0,0,0,.6.168c.374.144.547.426.881.647.1.068.319.068.418.135.079.054.173.309.251.364.147.1.51.324.655.43.278.2.321.192.593.4.249.193.315.111.558.313.156.129.412.343.565.476.062.053.174.371.234.425.234.2.482.149.709.36.18.168.374.453.55.624.106.1.08.29.182.395.087.088.307.1.393.186s.2.292.3.4c.156.169.309.342.46.515.1.117.037.219.138.338.151.18.465.378.611.563.108.135.215.272.32.409.068.088.18.088.246.176s.2.354.255.436c.087.116.053.13.138.248.2.28.445.492.638.778.155.229.263.535.413.767q.158.243.31.488c.092.146.335.172.424.319.058.094.207.582.263.676.17.285.094.3.256.593s.319.344.471.641c.087.169.172.581.255.751s.2.13.277.3c.117.254.2.721.314.978.062.144.291.4.351.545.075.181-.019.251.052.434.028.07.263.269.291.342.054.143-.031.118.022.262a.111.111,0,0,0,.033.042c.2.2.069.072.161.437a4.107,4.107,0,0,0,.3.958c.045.037-.006.165.012.222.03.088.06.176.089.266.041.13.082.263.12.4a6.708,6.708,0,0,1,.331,1.487c0,.105.136.242.136.35,0,.135.064.272.072.4a1.434,1.434,0,0,0,.075.6c.151.3-.011.621.056.945.046.222.174.431.216.655.013.071-.056.157-.042.227.053.306.1.611.124.919,0,.031.006.064.008.094.013.163.121.353.132.516.01.144-.022.329-.014.473.024.441.031.817.033,1.231,0,.109.054.33.054.447,0,.172-.1.274-.1.446q-.005.328-.018.656c-.006.146-.012.291-.021.436,0,.031-.04.074-.041.105-.006.114.023.217.016.331s-.08.217-.066.333a5.83,5.83,0,0,1-.033.733c-.022.262-.047.516-.06.623-.023.194-.108.412-.135.606-.017.12.024.219.006.339-.011.071-.023.143-.034.214-.021.129-.043.258-.065.388-.017.1-.186.3-.2.408-.023.122.1.145.08.267-.028.14-.057.279-.086.419l-.716-.15-.716-.149c.047-.222-.066-.473-.013-.681.024-.092.1-.136.114-.237s0-.273.014-.379q.063-.382.116-.768c.022-.156.092-.2.111-.353s-.011-.442,0-.606L34.08,42c.019-.184.082-.208.147-.382.133-.355-.048-.424-.039-.647.006-.13.013-.265.017-.4,0-.028.087-.019.087-.047.006-.2-.074-.448-.07-.65,0-.222.056-.475.056-.684,0-.053.135-.325.135-.378,0-.109-.121-.158-.122-.266,0-.2-.022-.24-.028-.437,0-.163.124-.123.117-.285s-.092-.515-.12-.664-.17-.163-.182-.313c-.024-.31-.094-.431-.128-.74-.014-.128.011-.446,0-.574-.039-.314-.124-.384-.174-.695-.018-.122.041-.476.021-.6-.034-.205-.169-.367-.208-.57-.043-.229-.012-.615-.072-.838-.077-.285-.229-.651-.294-.913s-.063-.465-.111-.693c-.063-.3-.279-.5-.26-.808a6.2,6.2,0,0,0-.111-.835c-.017-.1-.087-.294-.114-.4-.048-.194-.182-.365-.231-.525s-.018-.323-.077-.4a2.438,2.438,0,0,1-.3-.658c-.118-.283-.362-.42-.49-.7-.045-.1,0-.256-.046-.353-.087-.185-.115-.308-.205-.488-.079-.158-.128-.406-.21-.562s-.324-.266-.411-.426c-.194-.356-.367-.558-.576-.906-.04-.066.04-.315,0-.382-.077-.126-.338-.252-.417-.377-.117-.185-.238-.37-.359-.552-.064-.1-.262-.208-.327-.3-.18-.265-.112-.512-.3-.769-.085-.116-.215-.172-.3-.286-.053-.071-.064-.2-.118-.273a1.733,1.733,0,0,0-.155-.174c-.136-.138-.289-.268-.4-.411-.088-.108-.042-.245-.132-.351-.163-.2-.33-.389-.5-.58-.155-.174-.429-.273-.586-.443-.047-.052.023-.176-.025-.227-.066-.071-.266-.143-.333-.213-.087-.089-.033-.19-.128-.268a3.785,3.785,0,0,1-1.016-1.067c-.115-.176-.4-.284-.559-.423-.054-.048-.11-.1-.164-.143-.075-.065-.268-.056-.344-.121s-.014-.184-.08-.239-.205-.109-.271-.162c-.124-.1-.176-.2-.3-.3s-.348-.185-.487-.29c-.08-.06-.091-.145-.167-.211a5.073,5.073,0,0,0-.841-.612c-.079-.043-.281-.091-.358-.141-.127-.086-.126-.186-.263-.269-.1-.059-.191-.124-.286-.185s-.308-.082-.4-.138c-.144-.088-.156-.207-.3-.294q-.29-.174-.583-.341Zm1.849-1.886q.464.284.917.582c.121.08.217.232.362.242.223.016.446.416.667.573.31.222.618.341.922.574.249.19.548.217.791.414.188.153.455.364.64.519.144.122.287.246.43.371.208.184.307.4.511.586.323.3.56.2.981.676.181.2.332.714.519.911.094.1.187.2.28.3.124.134.356.19.478.326s.252-.021.39.269a2.031,2.031,0,0,0,.19.393c.165.193.33.39.49.588l.21.26c.1.128.243.12.342.249s.165.4.266.538c.127.169.254.341.377.513.158.219.205.521.358.742.11.159.368.187.475.349.127.193.042.492.164.687.15.237.46.338.6.579.052.088.077.286.128.374.257.442.506.891.743,1.347.141.269.338.548.471.823.085.173.168.348.25.523s.033.419.114.6c.072.164.208.329.278.5.129.3.309.553.429.862.058.147.3.226.351.376.035.094-.11.261-.076.355.07.194-.019.484.047.679.1.284.29.232.378.519.035.114.165.071.2.186.071.237.077.51.144.75.03.114.059.234.085.36.057.272.234.562.294.813.037.159-.052.32-.016.482.042.19.129.673.168.865.056.275.109.554.158.832.027.147-.057.352-.033.5.058.359.111.719.157,1.08.03.227.057.455.082.685l.018.163c.033.324.239.411.29.792.011.083.116.159.1.279a1.675,1.675,0,0,0-.048.354c.008.157.017.315.023.472,0,.064.006.128.007.192,0,.122.14.245.144.368,0,.153-.124.307-.123.46s0,.284,0,.426c0,.25-.092.629-.082.885.007.184.011.367,0,.546s-.123.4-.133.57.139.284.079.435c-.141.36.006.7-.22,1.278a3.48,3.48,0,0,0-.1.812c-.022.164-.045.33-.069.493a.762.762,0,0,1-.022.147,2.951,2.951,0,0,0-.275,1.26,2.169,2.169,0,0,1-.115.575l-.087.4c-.043.193-.027.3-.072.493-.021.082,0,.174-.016.256s-.155.263-.179.356l-.076.286-.708-.19-.707-.188c.082-.308.269-.672.343-.982.089-.372.063-.693.138-1.069.042-.213-.052-.344-.014-.557.085-.47.294-.807.355-1.28.025-.192,0-.875.017-1.067.016-.135.03-.273.043-.408.017-.169-.063-.353-.048-.522.017-.217.17-.436.184-.653a12.491,12.491,0,0,0-.063-1.358.915.915,0,0,0-.1-.418c0-.138.1-.226.15-.356a1.256,1.256,0,0,0,.112-.457c-.006-.245-.174-.522-.186-.766a8.4,8.4,0,0,0-.186-.839c-.028-.209.167-.785.036-.925-.175-.4-.042-.4-.059-.611-.011-.141-.06-.343-.082-.5s-.041-.295-.063-.442-.046-.294-.07-.441c-.041-.252-.248-.564-.261-.818a7.928,7.928,0,0,0-.017-.814c-.068-.426-.047-.708-.333-1.015s-.013-.72-.135-1.128c-.077-.263-.161-.524-.245-.785-.071-.217.017-.3-.221-.65a1.175,1.175,0,0,1-.1-.274c-.229-.632-.574-1.135-.841-1.748-.138-.316-.164-.672-.312-.982a4.2,4.2,0,0,0-.609-1.059,8.217,8.217,0,0,1-.634-1.4c-.029-.064-.256-.128-.292-.188-.134-.226-.133-.459-.273-.681-.208-.329-.6-.672-.82-.993-.256-.376-.365-.714-.612-1.094-.077-.12-.115-.082-.21-.2a.745.745,0,0,1-.118-.291c-.034-.2.04-.147-.164-.234-.05-.022-.057.01-.081-.022l-.155-.193c-.108-.134-.351-.321-.461-.453-.577-.693-.44-.522-.554-.649-.2-.216-.118-.384-.318-.6-.12-.128-.374-.255-.5-.38s-.257-.266-.389-.4-.242-.243-.364-.362c-.083-.081-.126-.227-.205-.312-.058-.06-.157-.06-.214-.122-.133-.144-.266-.29-.4-.431-.149-.157-.3-.309-.464-.449a11.989,11.989,0,0,0-1.036-.624c-.356-.244-.57-.565-.917-.824-.273-.2-.576-.345-.854-.539-.127-.088-.688-.338-.817-.425-.256-.172-.054-.233-.316-.4q-.333-.21-.673-.413Zm1.952-1.987c.129.082.258.165.385.249s.266.28.384.36c.075.051.124-.021.2.03.127.087.368.14.5.229.11.077.106.191.216.269l.169.123c.1.071.139.024.237.1.027.019.167.336.193.355.105.079.157-.017.261.063.353.271.734.651,1.039.68.058,0,.091.074.134.111q.243.2.482.4l.208.18c.077.068.156.245.233.313.194.173.315.081.506.257.054.051.182.26.237.309q.2.19.4.384c.052.05.079.292.129.342.239.233.4.338.629.579.1.106.207.214.308.321.229.243.457.489.679.739l.216.243c.07.08,0,.173.064.252.039.045.222.079.261.124q.152.176.3.355c.149.179.295.359.441.541a3.915,3.915,0,0,1,.294.371c.3.487.586.61.866,1,.129.18.432.387.558.569.069.1.152.216.22.318q.183.272.362.547c.041.064-.066.342-.025.406s.058.06.106.136l.092.149.132.214c.1.162.271.3.294.488a.422.422,0,0,0,.22.378c.028.012.03.053.046.08l.13.231c.1.178.2.356.295.536.059.111.12.223.179.336l.092.179c.027.052.238.262.265.314.068.133-.167.134-.1.268.106.214.36.464.541.854.114.249.227.5.337.751L37.472,25l-.669.292c-.066-.151-.133-.3-.2-.452-.048-.108-.1-.215-.147-.321s.077-.121.03-.22c-.086-.182-.345-.442-.435-.622-.115-.232-.246-.356-.366-.585-.07-.133-.14-.263-.21-.394-.039-.07-.011-.193-.05-.263-.11-.2-.329-.372-.442-.569-.057-.1-.115-.2-.173-.3-.074-.126-.15-.252-.226-.377s-.04-.185-.112-.3-.174-.251-.275-.382c-.116-.152-.2-.409-.286-.546s-.21-.15-.3-.277c-.181-.266-.315-.609-.5-.87-.085-.117-.28-.21-.366-.326-.1-.136-.165-.18-.269-.315-.085-.111-.316-.234-.4-.344s-.178-.043-.243-.181c-.027-.056-.083-.4-.11-.452a1.644,1.644,0,0,0-.221-.267c-.129-.156-.244-.079-.371-.162a.3.3,0,0,1-.07-.063c-.127-.146-.223-.585-.354-.73-.112-.124-.358-.431-.471-.554-.079-.085-.1-.01-.176-.064-.053-.037-.081-.1-.134-.144-.132-.109-.071-.07-.155-.272a.858.858,0,0,0-.091-.188c-.13-.134-.24-.087-.374-.219-.027-.025-.043-.07-.08-.077a4.168,4.168,0,0,1-1.038-.916,5.442,5.442,0,0,0-.873-.645c-.105-.089-.151-.057-.256-.145-.071-.059-.275-.145-.347-.2-.087-.071-.106-.24-.194-.31-.127-.1-.092-.377-.22-.477-.057-.043-.182-.043-.239-.086-.12-.093-.094-.081-.215-.172-.051-.037-.058-.145-.109-.182-.25-.184-.517-.19-.73-.341l-.173-.121c-.036-.025-.082-.112-.118-.138-.075-.053-.144-.045-.22-.1s-.164-.365-.237-.413-.139.053-.217,0l-.244-.159c-.068-.043-.088-.123-.156-.165-.083-.053-.165-.105-.25-.157ZM40.913,35.258a1.353,1.353,0,0,0,.035.35A1.651,1.651,0,0,1,41,36.2c0,.085-.039.237-.033.321.011.169.074.273.083.443,0,.029,0,.058,0,.088s0,.06,0,.092c0,.054.006.11.008.165,0,.088.053.118.056.207,0,.059.028.045.03.1,0,.081-.062.295-.059.376q.011.35.014.692c0,.115-.057.252-.057.366,0,.092.058.161.058.251,0,.145-.056.342-.058.486-.01.455-.036.674-.058,1.1-.017.313.141.627.116.937-.035.46-.19.918-.242,1.373a2.089,2.089,0,0,1,.014.273,1.051,1.051,0,0,0-.129.627.8.8,0,0,1-.039.258c-.011.077-.023.155-.035.232a3.6,3.6,0,0,1-.106.645,1.358,1.358,0,0,0-.117.637,1.381,1.381,0,0,1-.094.471c-.023.112-.058.223-.071.336-.042.384-.236.661-.237.968a4.5,4.5,0,0,1-.263,1.053l-.7-.194-.705-.194c.106-.382.233-.645.326-1.03.04-.164.052-.451.089-.616.014-.065.123,0,.138-.065.025-.115-.063-.366-.039-.481a3.8,3.8,0,0,1,.065-.393c.042-.121.138-.162.164-.3.03-.174-.045-.51-.016-.685.058-.349.028-.662.076-1.016.021-.147-.1-.3-.081-.446.065-.62.132-.315.25-.782a2.572,2.572,0,0,0,.027-.48c.027-.325-.169-.574-.151-.9.01-.191.076-.385.118-.672a4.86,4.86,0,0,0-.007-.784c0-.139.348-.475.348-.615s-.105-.271-.106-.4.034-.184.031-.309c0-.174-.14-.42-.145-.588s.08-.359.07-.534c-.006-.132.052-.314.043-.446-.006-.105-.08-.159-.087-.265s-.018-.226-.027-.338c0-.043.066-.03.063-.075s-.083-.167-.088-.22c0-.022,0-.043-.006-.065-.012-.134.033-.269.019-.4l.727-.075ZM28.252,8.352c.132.093.285.088.414.182.152.111.28.323.43.435l.123.093.18.139c.074.057.018.144.091.2.042.034.215.039.258.072.082.064.164.13.245.2a6.447,6.447,0,0,0,.513.48c.449.33,1.063.678,1.192.8.1.087.1.342.192.43s.132.064.256.182c.076.072.124.226.182.281a.667.667,0,0,0,.472.156c.1.013.213.3.31.407.126.138.25.267.376.4.239.245.484.493.75.794.088.1.2.287.287.385.163.192.312.376.418.53.066.1.261.127.336.217.109.13.108.316.214.449.124.155.248.312.37.467l-.579.451-.579.449c-.138-.175-.344-.335-.483-.509s-.152-.209-.286-.368a1.6,1.6,0,0,0-.29-.266c-.019-.012-.051-.163-.069-.175a.676.676,0,0,1-.124-.11A.663.663,0,0,0,33.1,14.8a2.84,2.84,0,0,1-.492-.256c-.054-.058-.126-.318-.18-.376l-.279-.292c-.051-.053-.122-.244-.173-.3s-.281-.023-.33-.071c-.138-.139-.122-.406-.262-.542-.066-.065-.134-.13-.2-.194-.207-.2-.463-.213-.535-.3-.19-.215-.046-.139-.2-.294-.065-.064-.1-.053-.315-.238-.1-.088-.248-.323-.4-.451-.117-.1-.251-.209-.4-.333-.116-.1-.234-.192-.351-.286-.086-.068-.134-.175-.22-.243-.046-.036-.169.04-.216,0-.081-.062-.248-.165-.33-.228-.053-.04.025-.1-.023-.157a.968.968,0,0,0-.159-.173c-.088-.065-.192-.04-.28-.1-.129-.1-.205-.337-.336-.43l.423-.6ZM13.687,29.433c.129.115.355.185.48.306.1.1.208.158.3.257.077.079.109.217.184.3.153.167.412.155.556.33.1.12.162.457.25.593.106.167.262.159.371.316.075.105.008.344.08.452.022.035.014.141.037.175a1.181,1.181,0,0,1,.31.216c.054.093.179.153.231.248s.057.268.111.362c.063.11.021.227.077.338.028.054.237.041.257.1.012.035.024.072.035.109.018.062.056.124.071.186,0,.014,0,.065.006.081.013.1-.088.163-.054.246.039.1.284.219.331.312.019.036-.07.106-.035.209.016.042.008.109.024.155s.088.086.1.127c.022.064-.059.168-.047.2l-.7.226-.7.227c-.017-.054-.036-.107-.056-.159s-.121-.063-.14-.111c-.046-.111-.013-.255-.056-.37-.011-.031-.023-.064-.033-.1-.021-.062.019-.175,0-.238-.071-.178-.263-.274-.359-.437-.016-.028-.006-.057-.022-.086-.059-.115-.022-.3-.083-.412a2.134,2.134,0,0,0-.123-.192c-.021-.029-.028-.109-.05-.138-.01-.011-.023,0-.035,0a.053.053,0,0,1-.03-.016c-.046-.06-.181-.1-.226-.155s-.011-.153-.05-.215a.678.678,0,0,1-.117-.229l-.034-.157-.089-.182c-.014-.03-.053-.013-.071-.039s.045-.174.031-.19-.035.006-.05-.008c-.092-.092-.28-.091-.368-.2-.106-.128-.213-.257-.323-.383Z" transform="translate(2.845 1.736)" fill="#fff" fill-rule="evenodd"/></g></g></svg>