<svg xmlns="http://www.w3.org/2000/svg" width="160" height="65.121" viewBox="0 0 160 65.121"><g transform="translate(-318.942 -488.271)"><path d="M419.956,508.4a2.007,2.007,0,0,1-2.069,1.385,2.215,2.215,0,0,1-2.292-2.069H422.1c0-.038.036-.407.036-.758,0-2.92-1.682-4.712-4.49-4.712a4.83,4.83,0,0,0,.221,9.645,4.1,4.1,0,0,0,4.14-2.882Zm-4.305-2.365a1.968,1.968,0,0,1,2.032-1.793,1.828,1.828,0,0,1,2.032,1.793Zm-10.643,1.016a2.282,2.282,0,0,1,2.255-2.55,2.252,2.252,0,0,1,2.235,2.531,2.269,2.269,0,1,1-4.49.018m6.874-8.815h-2.421v5.193a2.722,2.722,0,0,0-2.569-1.128,4.784,4.784,0,0,0,.074,9.536,2.853,2.853,0,0,0,2.551-1.275,6.2,6.2,0,0,0,.092,1.052h2.347c-.038-.369-.074-1.034-.074-1.644Zm-18.57,4.01a4.823,4.823,0,1,0,4.768,4.822,4.656,4.656,0,0,0-4.768-4.822m0,7.41a2.6,2.6,0,1,1,2.311-2.587,2.345,2.345,0,0,1-2.311,2.587m-8.777-10.109a1.516,1.516,0,1,0,1.515-1.534,1.519,1.519,0,0,0-1.515,1.534m2.754,2.976h-2.457v9.091h2.457Zm-6.134,4.546a2.28,2.28,0,1,1-2.255-2.55,2.3,2.3,0,0,1,2.255,2.55m-4.49,8.057v-4.4a3.194,3.194,0,0,0,2.624,1.108c2.568,0,4.287-2.032,4.287-4.786,0-2.7-1.533-4.732-4.195-4.732a3.179,3.179,0,0,0-2.79,1.313v-1.109h-2.385v12.6Zm-7.151-15.579a1.515,1.515,0,1,0,1.515-1.534,1.518,1.518,0,0,0-1.515,1.534m2.754,2.976H369.81v9.091h2.457Zm-7.853,2a1.981,1.981,0,0,1,2.014,1.533l2.2-.739a4.16,4.16,0,0,0-4.268-3.067,4.654,4.654,0,0,0-4.712,4.822,4.7,4.7,0,0,0,4.786,4.822,4.221,4.221,0,0,0,4.249-3.067l-2.161-.721a2.083,2.083,0,0,1-2.088,1.535,2.342,2.342,0,0,1-2.329-2.569,2.311,2.311,0,0,1,2.309-2.55m-8.776-4.972a1.515,1.515,0,1,0,1.515-1.534,1.518,1.518,0,0,0-1.515,1.534m2.752,2.976h-2.457v9.091h2.457Zm-10.106,3.862a1.711,1.711,0,0,1,1.7-1.884,1.6,1.6,0,0,1,1.682,1.81v5.3h2.457v-5.728c0-2-1.034-3.6-3.289-3.6a3.019,3.019,0,0,0-2.624,1.367v-1.127h-2.385v9.091h2.459Zm-6.652,5.229h2.347a15.111,15.111,0,0,1-.092-1.644v-7.448H341.43v5.285a1.641,1.641,0,0,1-1.719,1.792,1.618,1.618,0,0,1-1.662-1.83v-5.247h-2.457v5.747a3.349,3.349,0,0,0,3.455,3.585,2.871,2.871,0,0,0,2.512-1.219,6.264,6.264,0,0,0,.074.979m-8.074,0v-13.1h-3.474l-3.844,9.462-3.936-9.462h-3.363v13.1h2.439v-9.11l3.77,9.11h2.125l3.77-9.184v9.184Z" transform="translate(0 2.918)" fill="#333"/><path d="M414.625,518.481a7.6,7.6,0,1,0,7.511,7.6,7.336,7.336,0,0,0-7.511-7.6m0,11.675c-1.892,0-3.64-1.4-3.64-4.077,0-2.707,1.748-4.075,3.64-4.075s3.639,1.368,3.639,4.075-1.746,4.077-3.639,4.077M396.139,525a2.7,2.7,0,0,1,2.678-2.969c1.863,0,2.65,1.253,2.65,2.854v8.356h3.871v-9.025c0-3.145-1.629-5.678-5.182-5.678a4.758,4.758,0,0,0-4.134,2.155v-1.776h-3.756v14.324h3.873ZM384.874,514.23a2.387,2.387,0,1,0,2.387-2.416,2.392,2.392,0,0,0-2.387,2.416m4.338,4.687H385.34v14.324h3.871Zm-5.529-.059a8.981,8.981,0,0,0-.9-.057,4.258,4.258,0,0,0-4.075,2.24v-2.125h-3.756v14.324h3.871v-6.551c0-3.086,1.718-4.047,3.7-4.047a5.846,5.846,0,0,1,1.166.116ZM365.2,530.766a1.68,1.68,0,0,1-1.864-1.66,1.808,1.808,0,0,1,1.775-1.8l3.232-.5v.641c0,2.533-1.513,3.319-3.143,3.319m-5.736-1.426c0,2.242,1.864,4.308,4.92,4.308a4.786,4.786,0,0,0,4.222-2.125,9.749,9.749,0,0,0,.145,1.718H372.3a16.092,16.092,0,0,1-.174-2.271v-7.045c0-2.884-1.689-5.445-6.231-5.445-3.843,0-5.909,2.474-6.143,4.716l3.436.729a2.542,2.542,0,0,1,2.737-2.33c1.63,0,2.416.845,2.416,1.863,0,.5-.261.9-1.077,1.019l-3.522.524c-2.389.35-4.281,1.776-4.281,4.339m-2.094-17.177h-3.873v21.078h3.873Zm-6.928,0h-3.872v21.078h3.872Zm-11.265,2.066a2.387,2.387,0,1,0,2.387-2.416,2.392,2.392,0,0,0-2.387,2.416m4.338,4.687h-3.873v14.324h3.873Zm-14.788,9.025L323.338,512.6h-4.4l7.627,20.643H330.7l7.657-20.643H334.11Z" transform="translate(0 7.051)" fill="#333"/><path d="M407.956,517.361c.388.263,1.014.516,1.384.8a.516.516,0,0,1,.222.305c.033.135-.043.381.168.561.153.13.778.261.929.4.2.179.421.364.635.55.19.164.073.212.239.379.095.1.385.366.459.472a3.41,3.41,0,0,0,.264.339,1.812,1.812,0,0,0,.743.385c.713.261.424.4.559.508.094.111.294.56.385.673a4.262,4.262,0,0,1,.416.529c.315.544.181.663.4,1,.1.157.185.417.283.576.074.12.094.177.166.3s.183.388.246.5a6.819,6.819,0,0,1,.446.715c.034.077.007.186.044.261.117.229.311.429.421.662q.189.4.365.809c.082.191.029.318.107.512.052.131.238.333.288.465.027.074.056.148.083.222.064.177-.056.356.005.534.108.321.5.551.606.852.02.058.079.09.1.151s-.009.218.008.285.188.164.208.236-.123.326-.11.387c0,.026.017-.064.023-.035.081.327.426.516.407.845a3.006,3.006,0,0,0,.125.735c.023.134.165.507.109.633-.049.111-.151.221-.134.331.027.2.055.4.078.6l-1.173.138-1.3.164c-.013-.113-.044-.207-.058-.318-.005-.044.03-.111.025-.155-.026-.192-.149-.249-.178-.44-.009-.06-.116-.147-.126-.207-.023-.138.169-.238.157-.376a2.613,2.613,0,0,0-.091-.281c-.025-.106-.007-.118-.031-.223-.01-.048-.023-.1-.034-.147-.009-.034.14-.239.133-.273-.029-.114-.07-.315-.1-.429s-.49-.169-.524-.295c-.053-.192-.039-.394-.1-.585-.038-.125-.078-.251-.118-.376a.813.813,0,0,1,.013-.4c.033-.1-.07-.205-.107-.308-.091-.257.012-.437-.088-.691-.09-.227-.407-.434-.407-.68s-.2-.39-.3-.613c-.033-.066-.113-.127-.1-.2.045-.214-.3-.546-.4-.743s-.222-.416-.339-.62c-.053-.094-.107-.13-.161-.221-.183-.382-.186-.095-.334-.46-.026-.168-.061-.108-.212-.134-.03-.045-.043-.4-.073-.448-.082-.125-.264.075-.355-.077-.111-.182-.112-.218-.225-.377-.079-.111-.023-.379-.122-.5a1.7,1.7,0,0,1-.273-.9c.01-.217-.61-.123-.786-.324-.021-.025-.043-.122-.064-.147-.1-.117-.183-.291-.29-.407s-.333.038-.49-.133c-.091-.1-.19-.2-.286-.292-.065-.066-.188-.1-.255-.161-.112-.109-.233-.133-.346-.239s-.057-.365-.162-.461-.191-.3-.307-.4-.311-.092-.437-.2c-.143-.12-.1-.5-.249-.617Zm0-4.694c.212.118.311-.018.52.105s.5.056.707.186.337.452.538.584c.058.039.424.009.481.048.095.062.14.224.235.289l.251.173c.16.112.5.039.66.153q.273.2.541.405c.253.194.175.626.422.829a3.493,3.493,0,0,0,.446.249,6.109,6.109,0,0,1,.647.513c.148.133.3.268.444.4.062.058.264-.113.325-.055.095.09.146.2.24.295.187.183.378.282.561.47a6.352,6.352,0,0,1,.5.647c.153.216.265.682.42.891.094.127.116.394.2.5.11.131.383,0,.49.129.164.2.278.505.437.711.29.378.352.764.624,1.158.083.121.386.243.468.366.123.183.243.369.363.556.1.161.2.322.3.486.06.1.069.3.126.4.1.169-.105.422.017.576.173.217.672.343.834.8.044.125.121.517.181.637.138.277.273.278.4.561.087.191.174.321.257.515.049.116-.057.633-.009.748.226.545.544.863.737,1.424.06.173.053.39.109.564.064.2.126.4.186.6.065.217-.034.537.026.756.047.173.5.268.543.443.088.351.172.708.247,1.064.013.066-.066.143-.052.211.04.2-.1.434-.064.639.01.062.022.126.032.19.048.271.186.464.225.737.029.2.188.343.212.545.005.043.183.088.187.131.008.064-.108.387-.1.45.178,1.047.045.577.051.834,0,.086.013.17.018.256.013.228-.169.536-.161.765q.018.413.023.83l-1.179.014-1.179.013c0-.214-.047-.457-.04-.669.013-.427.208-.494.183-.706-.017-.143-.321-.233-.277-.388a1.426,1.426,0,0,0,.077-.459c-.017-.186-.11-.26-.131-.444-.036-.331.164-.663.116-.99-.027-.177-.164-.355-.192-.53-.065-.375-.045-.748-.126-1.119-.036-.166-.385-.171-.442-.337-.082-.236-.369-.574-.431-.807-.056-.217-.008-.43-.07-.647-.026-.087-.053-.176-.081-.263-.012-.04-.025-.083-.038-.123-.025-.082-.052-.165-.078-.246-.064-.2-.174-.346-.242-.541-.039-.112.033-.265-.008-.376-.155-.425-.322-.845-.5-1.257-.044-.1.027-.338-.018-.442-.066-.151-.221-.261-.291-.411-.139-.3-.083-.548-.233-.843-.181-.356-.316-.177-.511-.531-.042-.075-.391-.388-.433-.46-.086-.146-.117-.5-.2-.641s-.177-.286-.265-.426l-.1-.424-.153-.231a1.785,1.785,0,0,1-.275-.4c-.155-.468-.46-.435-.7-.746q-.3-.39-.617-.769c-.216-.259-.438-.516-.664-.768-.178-.2-.36-.4-.544-.593l-.261-.274c-.1-.1.009-.286-.1-.375-.151-.129-.487-.156-.691-.25a2.354,2.354,0,0,1-.607-.359c-.226-.211-.305-.505-.542-.7l-.183-.153c-.235-.194-.307-.58-.548-.765-.082-.064-.335.068-.417.005-.2-.147-.395-.291-.594-.433-.107-.074-.437-.207-.545-.281-.082-.056-.117.057-.2,0s-.151-.1-.226-.149c-.187-.122-.105-.616-.3-.734Zm0-4.526a.957.957,0,0,0,.272.127c.418.056.619.178.691.342.052.114.229.147.343.237s.227.077.323.129c.2.105.3.151.492.261.15.083.348.01.494.094.181.1.309.359.49.468.283.171.489.349.767.528.2.129.55.081.746.212.087.06.008.289.095.348s.47.022.551.079c.062.044.321.321.383.367.1.069.183.207.075.149-.239-.126.487.305.7.474.175.14.107.231.279.374.151.126.3.253.452.382q.478.408.942.832c.113.1.226.207.337.311.149.139.344.195.486.342.16.168-.057.3.114.47.135.134.577.512.721.648.1.095.237.075.33.177s.327.083.411.174c.119.129.078.361.195.493.14.157.078.3.216.447s.494.312.637.485c.077.092-.069.266.008.36.2.25.621.483.815.739s.49.412.669.663c.156.218.188.52.339.743q.164.246.325.493c.187.291.489.552.665.849s.105.676.269.967c.222.4.537.3.743.708.075.148.169.69.242.841.092.19.186.43.276.622s.209.394.321.587c.188.328.277-.014.434.825.019.108-.053.218-.014.317a3,3,0,0,1,.2.616c.04.251.248.414.552.665.17.14.161.415.246.62.075.183.149.368.207.556s.112.375.164.565c.027.094.053.188.078.282.044.164.35.367.391.532.084.335.092.635.166.973.061.281.121.563.174.845.065.335-.279.452-.227.793.025.16.013.586.036.749s.347.6.369.772c.079.63-.4,1.1-.173,1.7a4.622,4.622,0,0,1,.255,1.5c.007.285-.174.524-.174.81l-.005.009v.031l-1.179-.009-1.179-.009v-.022h-.005c0-.386-.007-.772-.021-1.155-.009-.23.129-.2.114-.431-.027-.468-.291-1.155-.339-1.614-.043-.391.131-.854.075-1.24-.053-.357-.3-.677-.364-1.032-.049-.27.082-.578.026-.846-.066-.317-.14-.448-.217-.763s-.23-.838-.314-1.145c-.064-.232-.207-.394-.276-.628s-.043-.469-.118-.7a5.055,5.055,0,0,0-.572-1.318c-.123-.173-.117-.417-.235-.593s-.11-.36-.216-.53-.326-.2-.353-.364c-.023-.135-.231-.327-.251-.485-.035-.278-.4-.559-.385-.756.027-.412-.691-.434-.89-.794-.108-.195.053-.531-.058-.722-.212-.363-.513-.563-.739-.916-.114-.179-.152-.52-.272-.7-.047-.07-.235-.1-.283-.17-.23-.338-.327-.711-.572-1.038l-.062-.084c-.127-.17-.257-.2-.388-.368-.069-.087-.135-.32-.209-.4-.473-.539-.681-.62-.911-.889-.2-.233-.182-.537-.386-.759-.346-.374-.512-.882-.9-1.238-.053-.048-.489-.138-.538-.186-.17-.165.039-.288-.136-.45-.192-.177-.328-.352-.525-.524-.266-.234-.6-.464-.875-.687-.066-.055-.3-.109-.368-.162-.238-.191-.4-.181-.645-.364-.147-.112-.3-.222-.447-.33s-.2-.4-.342-.5c-.186-.13-.377-.105-.567-.231-.082-.055-.156-.269-.227-.329a4.122,4.122,0,0,0-.473-.377c-.162-.1-.443-.035-.609-.133-.087-.052-.19-.183-.277-.235a8.059,8.059,0,0,1-.907-.572,3.075,3.075,0,0,0-.481-.251Zm1.945-3.669c.257.122.455.144.708.273.116.057.291.218.405.278s.083.184.2.247c.151.081.461.1.611.186.133.073.237.031.368.105.1.056.264.057.365.116.084.049.139.273.223.321.169.1.337.2.5.3l.166.1c.211.13.331.291.539.425.235.151.541.175.772.331.1.065.283.088.381.156.13.091.19.329.32.42l.429.309.32.237.172.13c.16.121.317.242.474.365l.373.3c.207.166.437.031.639.2.182.153.339.613.517.771.095.082.257.127.285.251.1.444.4.537.7.643.165.06.229.27.324.425.195.317.533.455.694.806.078.17.365.116.576.192s.162.276.408.538c.058.062.42.13.48.278a2.387,2.387,0,0,0,.249.537c.187.22.374.452.556.69.157.205.312.415.459.624.068.1.139.19.21.283.131.169.1.338.228.509.169.226.5.253.665.484.187.264.546.564.726.833.165.247.155.665.315.917.272.427.535.863.79,1.3a4.018,4.018,0,0,0,.7.846c.214.2.143.69.277.954.074.147.148.295.221.443.182.373.5.567.668.946q.2.442.386.892c.125.3.407.535.524.837.066.174-.062.415-.038.59.032.238-.052.278.031.519.068.2.392.365.5.564.149.292-.086,1.094.14,1.3a2.589,2.589,0,0,1,.455.954c.061.229.222.4.279.629.113.459.259.76.355,1.227.029.142-.1.53-.077.673.06.311.3.137.291.855a10.611,10.611,0,0,0,.352,1.317c.005.035-.146.3-.148.333l-.039.482c-.045.564.285.746.325,1.315.053.752-.272,1.587-.264,2.352l-1.179.009-1.179.009-.26-.8-.118-.891c-.01-.169.134-.458.109-.647a3.8,3.8,0,0,1-.162-.654c.03-.4.16-.556.047-.9l-.205-.624c-.071-.218.055-.455.018-.681s-.081-.469-.123-.7c-.069-.375-.023-.771-.1-1.144-.107-.482-.511-.872-.464-1.361a1.933,1.933,0,0,1-.283-.6c-.047-.235.055-.547.021-.81a2.822,2.822,0,0,0-.179-.928c-.23-.136-.331-.412-.464-.528a.746.746,0,0,1-.317-.7,2.363,2.363,0,0,0-.283-1.206c-.187-.438-.351-1.041-.556-1.468-.159-.334-.415-.476-.606-.8a2.743,2.743,0,0,1-.36-.846,2.69,2.69,0,0,0-.741-1.35,3.323,3.323,0,0,1-.282-.376c-.186-.294-.511-.216-.706-.5-.146-.214-.427-.529-.577-.741a11.632,11.632,0,0,1-.665-1.2c-.083-.157.031-.446-.264-.455-.129-.005-.078-.483-.157-.578a1.685,1.685,0,0,0-.55-.452c-.213-.1-.236-.192-.486-.382-.274-.209-.444-.646-.928-1.159a8.526,8.526,0,0,0-1.14-1.142l-.537-.389.069-.239-.391-.369c-.185-.175-.489-.11-.69-.25-.144-.1-.246-.275-.389-.39-.165-.131-.307-.361-.481-.483-.074-.052-.133.053-.2,0-.094-.072-.259-.133-.352-.2-.12-.091-.183-.355-.3-.446-.062-.044-.126-.091-.188-.136-.09-.065-.372.086-.463.021-.114-.082-.217-.265-.333-.346-.182-.125-.418-.382-.642-.505-.131-.07-.257-.012-.365-.082-.22-.142-.222-.4-.408-.535-.13-.1-.295-.352-.452-.446-.088-.052-.147.056-.235,0l-.146-.084c-.1-.056-.2-.113-.295-.168-.16-.09-.321-.238-.482-.325-.2-.107-.5-.009-.7-.113-.165-.084-.23-.315-.4-.4q-.655-.326-1.324-.623Zm3.055-3.112c.338.175.674.355,1.007.538.117.065.364,0,.481.068.216.122.3.375.513.5.252.148.385.364.632.518.264.163.645.264.9.433.429.28.819.641,1.236.934.286.2.6.333.882.541.473.352.129.329.414.591.169.156.433.16.6.3l.482.383c.136.109.312.036.447.146.078.062.12.251.2.314.057.047.114.094.168.14.242.212.556.424.637.69a1.04,1.04,0,0,0,.166.325c.083.114.357.031.472.134.065.057.283.328.351.386.126.105.257.216.381.339.27.268.643.473.9.746.1.1.195.205.291.308.249.266.5.381.739.654.072.081.143.318.214.4.184.211.368.426.548.641.164.2.292.29.454.489.064.079.116.147.159.205.138.19.281.074.482.335.06.078.069.351.13.43l.223.3q.177.238.353.48c.129.178.257.357.382.537.1.138.262.152.357.291a1.255,1.255,0,0,0,.2.486c.055.081.109.163.162.244s.121.186.181.279c.134.209.356.35.486.561.075.122.08.388.156.512.092.153.183.307.274.461.061.1.121.209.181.313a3.943,3.943,0,0,1,.234.6,1.969,1.969,0,0,0,.121.283c.091.166.181.335.269.5.129.244.288.292.412.539.044.09.217.139.261.229.082.165.007.577.086.743.113.24.385.316.5.559.1.227.046.625.143.854.044.1.153.164.195.265.052.123.013.288.064.413.029.07.149.1.178.174.056.138.046.317.1.456s.3.259.36.409c.169.452.229.951.382,1.41.117.35.259.646.366,1,.04.134.082.269.121.4.035.118.069.237.1.355q.115.4.22.806c.031.116.061.233.09.348.036.143.186.274.22.418.029.117-.056.249-.029.368.048.208.095.417.139.626.034.153-.045.363-.014.517.016.075.143.095.157.17.023.118.047.238.069.356.04.214.262.43.3.646s-.12.452-.073.674c.064.313.308.656.278.881a4.2,4.2,0,0,0,0,.949c.031.279-.094.559-.069.839.034.381.277.8.3,1.179.014.247-.094.495-.083.743.025.594-.053,1.159-.053,1.758l0,.009,0,.165v.137l-1.179-.013-1.179-.014v-.133l0-.151h-.005c0-.326-.126-.652-.134-.977-.005-.195.111-.391.1-.587-.017-.421-.056-.789-.105-1.176-.038-.3.038-.626-.009-.923-.064-.409-.255-.825-.312-1.262a3.352,3.352,0,0,0-.19-1.275c-.09-.153.47-.391.052-.732-.03-.165-.061-.331-.094-.5-.039-.2-.081-.4-.122-.6-.036-.175-.312-.179-.351-.356s.1-.53.064-.7c-.033-.135.031-.342,0-.478-.026-.1-.129-.144-.156-.247-.022-.086-.044-.172-.068-.256-.053-.2-.108-.394-.164-.59-.048-.169-.047-.236-.1-.405-.038-.125.126-.354.087-.478-.047-.151-.348-.3-.4-.451-.088-.272-.229-.55-.33-.816-.031-.082-.068-.165-.107-.246-.069-.144-.182-.261-.237-.409a1.393,1.393,0,0,1-.016-.333,1.722,1.722,0,0,0-.055-.36c-.045-.149-.105-.289-.162-.427-.046-.105-.143-.122-.179-.235-.017-.053.012-.213-.048-.265-.148-.128-.043-.342-.105-.43a6.047,6.047,0,0,1-.591-1.066c-.062-.131-.126-.263-.188-.391s-.24-.188-.307-.322c-.091-.179-.079-.36-.172-.538-.073-.14-.148-.281-.223-.42s-.129-.353-.209-.519c-.1-.194-.225-.348-.324-.518-.062-.109-.125-.217-.188-.324-.095-.162-.338-.291-.437-.452-.131-.214-.12-.463-.255-.674-.079-.125-.161-.251-.242-.374l-.155-.235c-.066-.1-.16-.457-.226-.556-.14-.208-.259-.157-.4-.363s-.269-.376-.4-.557c-.235-.329-.593-.19-.8-.564-.108-.194-.347-.755-.459-.947-.166-.287-.524-.435-.723-.669-.149-.178-.126-.464-.291-.607s-.347-.285-.535-.42a5.468,5.468,0,0,1-.821-.6c-.195-.2-.334-.438-.533-.635-.242-.242-.308-.547-.558-.782-.064-.061-.316,0-.381-.061-.123-.114-.235-.47-.36-.583l-.147-.134c-.169-.151-.158-.222-.329-.372-.221-.19-.521-.352-.746-.537s-.4-.311-.634-.493c-.216-.169-.5-.212-.72-.374-.2-.151-.273-.672-.48-.819s-.532-.166-.743-.312c-.1-.07-.225-.313-.33-.383-.274-.183-.382-.179-.661-.356-.1-.062-.386-.329-.486-.391-.174-.109-.32-.032-.5-.14-.309-.188-.483-.383-.8-.563-.218-.126-.347-.374-.57-.5-.181-.1-.459-.073-.642-.17-.281-.146-.563-.29-.847-.43l-.005,0Zm3.2-3.263c.329.183.656.37.98.561.545.318,1.055.5,1.584.837.209.136.444.428.652.567.23.153.457.311.683.468s.416.129.634.287c.257.186.547.521.811.674a8.492,8.492,0,0,1,1.045.678c.195.157.387.326.577.5.264.246.524.5.781.763.179.182.359.365.538.542s.231.379.4.535c.136.125.428.151.563.279.269.253.6.463.865.724.056.053.109.109.162.162.036.035-.062.159-.027.195s.214-.007.252.032.074.074.11.112c0,0-.049.238.047.338.066.067.278,0,.327.049.268.281.465.518.708.819.062.077.374.2.441.278.014.016-.033.172-.018.19.1.133.01.195.12.318s.317.226.435.365c.093.11.086.351.178.463.136.164.377.2.511.368q.4.5.794,1.008c.19.248.506.447.69.7.131.181.134.413.264.6.451.637.81,1.337,1.229,2,.095.151.19.3.282.455.305.5.676.821.955,1.332.117.212.1.529.216.743s.348.318.455.531c.058.12-.009.19.049.309.192.392.43,1.021.609,1.422.156.347.36.646.508,1,.092.221.184.445.274.668.123.312.273.522.391.838.146.385.209.928.346,1.318.064.184.231.24.294.426.1.291.2.638.29.933.027.087.056.175.083.264.035.11.07.224.1.334.208.674.439,1.406.639,2.113.049.172.1.343.14.511.039.148.092.339.126.486.044.2.162.443.2.639.331.416.056.741.129,1.161.064.364.131.73.212,1.1.056.251.112.5.165.756.048.225.308.426.355.651a11.858,11.858,0,0,1,.251,2.014c.008.222.116.557.113.8-.008.446-.091.82-.142,1.354-.02.183.122.292.129.477.016.522.265,1.312.265,1.839,0,.353-.112.543-.123.94-.007.24-.016.489-.026.745a1.1,1.1,0,0,1-.14.564c-.147.279.014.565.029.85.008.159-.281.309-.291.437l-.947-.074-.231-.018-1.179-.094c.019-.23.036-.456.051-.675.014-.2.107-.4.116-.587.009-.169-.062-.334-.056-.5v-.018c.01-.257.019-.53.025-.818s-.151-.559-.151-.889c0-.149-.068-.19-.055-.331.01-.117-.114-.287-.107-.409,0-.061.2-.2.2-.265a2.58,2.58,0,0,0-.036-.646,10.169,10.169,0,0,1-.157-1.487c-.018-.263-.04-.528-.064-.789-.038-.428-.212-.881-.263-1.3-.065-.555.062-1.107-.023-1.656-.035-.221-.279-.187-.317-.407-.029-.164.147-.585.117-.748-.147-.786-.446-1.077-.634-1.848-.058-.239-.12-.889-.182-1.125s-.355-.533-.417-.759c-.116-.411-.007-.742-.134-1.148-.1-.31-.2-.621-.3-.928-.064-.19-.058-.635-.125-.824s-.263-.152-.338-.356c-.055-.148-.138-.4-.194-.548a2.036,2.036,0,0,0-.112-.236c-.042-.076.148-.175.1-.252s-.3-.144-.357-.226-.1-.145-.142-.218a2.6,2.6,0,0,1-.22-.413c-.134-.329-.116-.811-.253-1.135-.071-.168-.195-.129-.266-.295-.191-.435-.639-.869-.842-1.3-.185-.387-.265-.777-.463-1.158-.136-.265-.235-.476-.331-.677-.073-.153-.074-.373-.161-.537-.062-.114-.212-.047-.3-.186-.04-.068,0-.372-.036-.489a1.886,1.886,0,0,0-.282-.413c-.127-.2-.369-.4-.5-.6-.068-.1-.316-.214-.405-.418-.03-.066-.022-.192-.1-.29a1.175,1.175,0,0,0-.328-.22c-.118-.065-.155-.221-.233-.331-.435-.621-.585-1-.982-1.517-.116-.152-.209-.659-.348-.83-.077-.095-.187.139-.268.023-.125-.182-.252-.48-.376-.625-.274-.325-.519-.617-.8-.933-.19-.212-.385-.422-.578-.63-.09-.1-.337-.194-.428-.29-.26-.273-.512-.4-.778-.666-.589-.586-1.2-1.029-1.817-1.58-.213-.19-.429-.377-.645-.561-.116-.1-.027-.378-.144-.476-.175-.146-.465-.187-.639-.335a1.955,1.955,0,0,0-.386-.265,8.241,8.241,0,0,1-1.336-1.014c-.157-.114-.06-.383-.218-.5-.374-.265-.96-.5-1.344-.754-.133-.087-.188-.227-.324-.313a4.932,4.932,0,0,0-.535-.17.846.846,0,0,1-.409-.325c-.294-.52-.7-.418-1.049-.621s-.515-.434-.881-.63l-.019-.01Zm3-3.062a6.489,6.489,0,0,0,.971.271c.6.233.884.688,1.42,1.046.162.108.515.108.674.217.127.087.278.5.406.587.238.166.823.522,1.058.693.448.325.518.312.955.651.4.313.509.181.9.506.252.208.664.553.912.768.1.086.279.6.38.686.377.329.777.24,1.144.582.29.269.6.729.886,1.006.172.166.127.469.3.638.14.143.494.155.633.3.16.168.32.472.478.643.251.273.5.551.741.83.165.19.061.354.222.545.244.291.751.612.988.91.174.218.347.439.517.66.109.142.29.142.4.286s.316.572.412.7c.138.187.086.211.221.4.325.454.717.794,1.029,1.257.249.37.425.863.667,1.238q.253.392.5.786c.148.236.539.278.685.514.092.152.331.94.424,1.092.274.461.153.487.413.958s.515.555.76,1.034c.139.273.277.937.412,1.213s.316.211.445.487c.191.409.329,1.164.508,1.579.1.231.47.646.567.878.121.292-.03.407.084.7.044.114.426.437.469.552.09.231-.049.192.035.425a.216.216,0,0,0,.053.068c.324.318.111.117.259.706a6.476,6.476,0,0,0,.483,1.545c.072.06-.012.268.02.359.048.141.1.286.143.43.066.211.131.424.192.643a10.726,10.726,0,0,1,.535,2.4c.005.17.22.39.218.565,0,.217.105.438.118.654a2.315,2.315,0,0,0,.121.96c.243.48-.017,1,.091,1.523.073.359.279.7.347,1.058.021.114-.088.252-.068.366.084.492.158.986.2,1.483.005.051.01.1.013.153.022.261.195.569.213.83.016.233-.035.532-.022.764.038.712.048,1.319.049,1.987,0,.177.09.533.09.721,0,.277-.156.445-.16.719-.007.353-.016.707-.03,1.06-.009.234-.02.469-.031.7,0,.051-.066.12-.069.17-.01.183.039.351.026.533s-.129.351-.107.537a9.459,9.459,0,0,1-.053,1.185c-.034.422-.075.832-.1,1.006-.038.313-.174.664-.218.977-.026.194.039.355.009.548l-.055.346c-.033.208-.068.417-.1.625-.029.166-.3.493-.33.658-.036.2.166.235.127.433q-.066.339-.138.676l-1.155-.24-1.155-.24c.075-.36-.108-.765-.022-1.1.039-.149.155-.222.183-.385s0-.439.023-.611c.068-.412.131-.825.188-1.24.034-.251.148-.317.178-.569s-.018-.715.009-.979l.013-.13c.031-.3.131-.335.237-.616.214-.574-.078-.685-.061-1.046.01-.211.02-.426.026-.641,0-.044.14-.031.142-.075.009-.33-.118-.724-.114-1.05.005-.359.09-.765.091-1.1,0-.085.218-.522.218-.609,0-.175-.195-.255-.2-.429,0-.321-.035-.388-.044-.707-.008-.263.2-.2.188-.46s-.148-.829-.192-1.071c-.042-.226-.275-.262-.294-.5-.04-.5-.153-.7-.208-1.2-.023-.207.017-.721-.008-.927-.064-.507-.2-.62-.28-1.12-.031-.2.065-.768.033-.964-.055-.33-.273-.591-.335-.919-.071-.37-.019-.992-.118-1.353-.125-.46-.369-1.051-.473-1.474-.1-.405-.1-.75-.179-1.119-.1-.485-.451-.812-.42-1.3a10.08,10.08,0,0,0-.178-1.348c-.029-.164-.142-.474-.183-.643-.078-.314-.295-.589-.373-.847s-.029-.522-.123-.646a3.846,3.846,0,0,1-.49-1.063c-.192-.457-.585-.678-.791-1.127-.072-.158,0-.415-.074-.572-.14-.3-.186-.5-.331-.787-.127-.253-.208-.654-.339-.9s-.522-.43-.664-.69c-.313-.574-.591-.9-.929-1.461-.065-.108.065-.508,0-.616-.125-.2-.545-.407-.672-.608-.188-.3-.382-.6-.578-.891-.1-.156-.422-.335-.528-.489-.291-.426-.182-.827-.486-1.242-.136-.186-.347-.278-.486-.463-.087-.114-.1-.326-.192-.439a3.139,3.139,0,0,0-.25-.282c-.22-.221-.465-.431-.654-.663-.142-.173-.068-.4-.212-.567-.264-.315-.533-.628-.8-.936-.248-.281-.691-.441-.946-.716-.075-.082.036-.283-.039-.365-.108-.114-.431-.23-.539-.343-.14-.146-.052-.307-.208-.434a6.072,6.072,0,0,1-1.637-1.721c-.187-.283-.647-.458-.9-.682-.087-.078-.175-.153-.264-.23-.121-.1-.433-.091-.555-.194-.107-.09-.023-.3-.13-.387s-.33-.175-.435-.263c-.2-.164-.285-.326-.487-.486-.22-.174-.561-.3-.785-.47-.127-.1-.146-.233-.268-.34a8.145,8.145,0,0,0-1.358-.989c-.126-.07-.453-.144-.577-.228-.2-.138-.2-.3-.424-.434-.157-.095-.309-.2-.463-.3s-.5-.133-.639-.221c-.231-.144-.251-.335-.483-.474-.312-.187-.626-.372-.942-.551Zm2.985-3.041q.749.458,1.478.938c.2.13.352.374.586.391.361.025.72.669,1.075.923.5.357,1,.55,1.489.925.4.307.885.351,1.276.669.3.247.736.586,1.033.84.233.2.464.4.693.6.337.3.5.641.825.945.522.481.906.326,1.583,1.092.292.33.535,1.151.839,1.47.152.159.3.32.451.479.2.217.576.305.773.526.182.2.407-.033.628.435a3.278,3.278,0,0,0,.308.633c.266.313.531.629.79.949q.171.209.339.42c.164.207.391.194.552.4s.266.652.429.868c.205.274.409.55.609.828.253.352.33.839.576,1.2.177.259.594.3.765.563.205.312.069.794.266,1.11.24.382.742.546.973.934.084.142.125.46.208.6q.624,1.07,1.2,2.173c.227.437.546.886.76,1.328q.207.421.4.845c.138.294.052.678.185.973.117.265.335.533.448.8.208.491.5.894.691,1.392.094.239.477.365.567.607.057.152-.177.422-.122.574.112.312-.03.781.077,1.094.155.459.467.376.611.838.056.183.266.114.321.3.114.383.125.824.231,1.211.049.183.095.379.136.581.092.439.378.906.473,1.311.061.257-.082.517-.025.779.069.307.208,1.086.27,1.4q.136.669.256,1.344c.043.238-.092.565-.053.806q.14.866.255,1.742c.048.366.092.735.133,1.1l.027.265c.055.523.386.661.469,1.278.017.135.188.257.157.451a2.655,2.655,0,0,0-.079.57c.013.253.027.508.038.763,0,.1.009.207.012.309.007.2.225.4.23.6.007.247-.2.5-.2.742q0,.343,0,.689c0,.4-.148,1.014-.133,1.428.012.3.018.594.008.881s-.2.643-.216.92.224.457.127.7c-.23.582.01,1.127-.355,2.064a5.607,5.607,0,0,0-.159,1.309c-.034.266-.071.531-.11.8a1.208,1.208,0,0,1-.035.238,4.772,4.772,0,0,0-.444,2.035,3.494,3.494,0,0,1-.187.927q-.066.323-.14.647c-.069.312-.042.485-.117.8-.033.133.009.281-.023.413-.038.149-.251.426-.29.574s-.081.309-.122.463l-1.141-.305-1.142-.305c.134-.5.435-1.083.555-1.584.143-.6.1-1.118.222-1.726.068-.342-.084-.555-.023-.9.135-.756.473-1.3.574-2.065.04-.311-.009-1.411.026-1.722.025-.218.048-.439.07-.657.026-.274-.1-.569-.079-.843.029-.351.276-.7.3-1.055a20.141,20.141,0,0,0-.1-2.19,1.47,1.47,0,0,0-.152-.674c0-.222.16-.365.239-.574a1.964,1.964,0,0,0,.183-.738c-.01-.4-.282-.842-.3-1.236a13.125,13.125,0,0,0-.3-1.354c-.043-.338.27-1.267.06-1.493-.282-.643-.069-.647-.095-.986-.018-.227-.1-.555-.133-.8s-.068-.476-.1-.712-.074-.474-.113-.712c-.066-.407-.4-.91-.421-1.32a12.938,12.938,0,0,0-.027-1.312c-.111-.689-.077-1.142-.538-1.637s-.022-1.162-.218-1.821q-.189-.637-.4-1.267c-.116-.351.029-.482-.356-1.049a1.887,1.887,0,0,1-.159-.443c-.369-1.019-.925-1.832-1.355-2.82-.223-.512-.265-1.082-.5-1.585a6.73,6.73,0,0,0-.983-1.709,13.2,13.2,0,0,1-1.023-2.256c-.047-.1-.413-.205-.472-.3-.216-.364-.216-.741-.439-1.1-.335-.533-.971-1.085-1.325-1.6-.412-.607-.587-1.153-.986-1.766-.125-.194-.186-.133-.342-.325a1.2,1.2,0,0,1-.188-.468c-.055-.32.062-.238-.265-.378-.082-.035-.092.014-.131-.035l-.249-.313c-.174-.216-.568-.517-.745-.729a13.559,13.559,0,0,0-.9-1.047c-.317-.35-.192-.62-.513-.966-.191-.207-.6-.412-.8-.615s-.415-.429-.626-.641q-.29-.294-.587-.583c-.135-.131-.2-.367-.333-.5-.092-.1-.252-.1-.343-.2-.216-.231-.43-.468-.648-.7-.242-.252-.489-.5-.749-.724a19.026,19.026,0,0,0-1.674-1.008c-.576-.4-.92-.912-1.48-1.329-.439-.326-.929-.559-1.377-.871-.2-.142-1.111-.546-1.316-.685-.415-.278-.09-.378-.512-.644q-.538-.341-1.086-.668Zm3.149-3.207q.314.2.624.4c.192.126.428.451.619.58.121.082.2-.033.321.049.205.14.6.227.8.37.178.126.173.308.35.434l.273.2c.161.117.225.039.382.157.043.031.269.542.312.573.169.126.253-.027.42.1.572.438,1.188,1.051,1.678,1.1.094.009.146.12.217.179.26.216.52.434.776.654.113.095.225.192.337.29s.251.4.376.505c.314.278.509.13.817.416.088.081.294.417.382.5.217.2.434.411.65.617.083.081.126.474.208.554.386.377.641.546,1.016.933.166.172.333.344.5.519q.558.589,1.1,1.193c.117.13.233.261.348.393s-.009.278.1.407c.062.073.36.127.422.2.162.19.324.382.483.573.24.288.477.581.712.873a6.158,6.158,0,0,1,.473.6c.478.785.946.982,1.4,1.617.208.291.7.624.9.919.112.162.246.347.356.511q.294.44.583.884c.066.1-.108.552-.042.656.078.121.094.1.172.221l.148.238c.071.116.143.23.213.346.16.261.438.483.473.788a.686.686,0,0,0,.355.609c.046.021.049.087.074.13l.211.372q.242.431.476.865c.1.179.194.361.288.543.049.095.1.191.149.287s.385.424.428.507c.109.213-.27.217-.164.431.172.347.581.75.871,1.379q.279.6.544,1.214l-1.081.471-1.082.472c-.107-.244-.214-.486-.324-.729-.078-.173-.157-.346-.237-.518s.125-.195.048-.355c-.139-.294-.557-.712-.7-1-.186-.373-.4-.574-.59-.943q-.17-.32-.34-.636c-.061-.113-.018-.312-.079-.425-.177-.321-.529-.6-.713-.919-.092-.16-.186-.32-.279-.477-.12-.2-.242-.407-.364-.608s-.064-.3-.182-.487-.279-.406-.443-.616c-.187-.244-.318-.661-.463-.881s-.339-.242-.477-.446c-.294-.429-.509-.984-.813-1.4-.136-.188-.451-.338-.59-.525-.162-.22-.268-.291-.435-.509-.136-.179-.512-.378-.651-.556s-.286-.069-.392-.292c-.042-.089-.133-.642-.177-.728a2.62,2.62,0,0,0-.356-.431c-.209-.252-.394-.127-.6-.26a.657.657,0,0,1-.114-.1c-.2-.238-.36-.945-.569-1.179-.181-.2-.578-.7-.76-.894-.127-.138-.157-.016-.286-.105-.084-.059-.13-.161-.216-.231-.213-.174-.114-.113-.25-.437a1.379,1.379,0,0,0-.146-.305c-.212-.216-.389-.139-.6-.352-.043-.042-.07-.113-.129-.126a6.71,6.71,0,0,1-1.675-1.476,8.789,8.789,0,0,0-1.41-1.042c-.168-.143-.242-.092-.413-.234-.114-.095-.443-.234-.557-.327-.143-.114-.173-.386-.316-.5-.2-.164-.147-.608-.355-.769-.09-.07-.294-.07-.385-.14-.194-.148-.152-.129-.347-.275-.082-.06-.095-.234-.177-.3-.4-.295-.834-.307-1.177-.55l-.278-.195c-.058-.042-.131-.181-.191-.221-.121-.086-.231-.072-.355-.156s-.265-.587-.383-.667-.223.086-.348,0l-.4-.256c-.108-.07-.143-.2-.251-.268l-.4-.255Zm26.595,42.9a2.277,2.277,0,0,0,.057.566,2.642,2.642,0,0,1,.083.953c0,.139-.062.383-.053.521.02.272.121.439.135.715,0,.047.006.094.009.142s.005.1.008.148c0,.09.009.178.013.267.007.143.084.192.09.334,0,.095.044.071.047.166.005.131-.1.476-.094.606.01.377.019.749.023,1.116,0,.187-.092.408-.092.592,0,.147.094.259.094.406,0,.233-.088.551-.094.784-.014.734-.059,1.088-.094,1.78-.026.506.227,1.011.188,1.514-.057.741-.307,1.48-.391,2.216a3.166,3.166,0,0,1,.023.441,1.7,1.7,0,0,0-.209,1.011,1.332,1.332,0,0,1-.061.417c-.018.125-.036.251-.057.374a5.9,5.9,0,0,1-.172,1.041,2.214,2.214,0,0,0-.188,1.028,2.223,2.223,0,0,1-.152.761c-.036.181-.095.359-.114.542-.069.618-.381,1.065-.383,1.561a7.349,7.349,0,0,1-.425,1.7l-1.137-.315-1.137-.315c.172-.615.377-1.04.526-1.662.064-.265.083-.728.144-.994.023-.107.2,0,.222-.1.042-.187-.1-.591-.062-.778a6,6,0,0,1,.105-.633c.068-.2.222-.261.264-.491.051-.281-.071-.823-.025-1.1.095-.564.045-1.068.123-1.639.033-.239-.156-.477-.13-.72.105-1,.212-.508.4-1.262a4.191,4.191,0,0,0,.04-.773c.044-.524-.272-.925-.243-1.456.016-.308.123-.622.191-1.084a7.77,7.77,0,0,0-.012-1.266c0-.226.561-.765.561-.992,0-.208-.169-.438-.172-.641s.055-.295.051-.5c-.005-.279-.226-.677-.235-.95-.009-.29.13-.578.116-.86-.012-.212.083-.508.07-.72-.01-.169-.13-.256-.142-.426s-.029-.365-.043-.546c-.005-.071.107-.049.1-.121s-.135-.269-.143-.356c0-.034-.007-.069-.009-.1-.02-.217.053-.434.03-.651l1.175-.121Zm-20.431-43.421c.211.149.457.143.668.295.244.179.452.52.694.7l.2.15c.1.075.194.149.291.223.117.091.027.233.144.324.07.055.348.061.418.117.133.1.265.209.395.316a10.49,10.49,0,0,0,.828.775c.726.531,1.715,1.094,1.925,1.283.155.14.155.553.309.7s.214.1.415.294c.122.117.2.364.294.454a1.068,1.068,0,0,0,.761.251c.157.023.344.485.5.658.2.222.4.431.606.641.386.4.781.8,1.211,1.28.14.16.329.465.463.623.264.309.5.608.674.856.108.156.421.2.543.351.174.211.173.512.344.726.2.248.4.5.6.754l-.933.726-.934.725c-.22-.283-.555-.541-.778-.82-.211-.261-.247-.337-.463-.6a2.55,2.55,0,0,0-.469-.429c-.03-.019-.081-.262-.11-.283a1.071,1.071,0,0,1-.2-.175,1.065,1.065,0,0,0-.574-.511,4.456,4.456,0,0,1-.794-.413c-.087-.094-.2-.512-.29-.606-.149-.159-.3-.317-.451-.472-.082-.085-.2-.394-.279-.477s-.454-.036-.532-.116c-.222-.225-.2-.654-.424-.875-.107-.105-.217-.211-.326-.314-.334-.322-.746-.344-.864-.478-.305-.347-.074-.224-.326-.473-.105-.1-.156-.086-.509-.385-.168-.142-.4-.52-.647-.725-.19-.157-.407-.338-.652-.539-.186-.155-.377-.309-.567-.463-.138-.109-.216-.281-.353-.391-.075-.058-.274.066-.35.006-.131-.1-.4-.266-.533-.369-.086-.064.042-.153-.036-.253a1.547,1.547,0,0,0-.259-.279c-.14-.105-.309-.064-.451-.168-.209-.152-.333-.543-.543-.693l.684-.962Zm-23.506,34.021c.209.186.572.3.773.494.16.153.335.256.491.415.123.127.174.351.295.483.247.269.664.251.9.532.16.195.261.738.4.958.173.269.422.257.6.511.121.17.014.555.129.73.036.055.025.226.06.282a1.825,1.825,0,0,1,.5.35c.088.149.288.247.373.4s.092.433.179.584c.1.177.034.366.125.547.045.088.382.065.416.162.019.058.04.118.057.177.03.1.09.2.116.3.005.023,0,.107.008.133.022.158-.14.262-.088.4.064.162.46.352.537.5.03.06-.114.173-.057.337.025.07.013.177.036.251s.144.138.166.205c.034.1-.095.27-.078.326l-1.123.365-1.124.365c-.027-.087-.059-.173-.09-.256s-.2-.1-.226-.178c-.074-.181-.021-.413-.088-.6-.018-.051-.038-.1-.055-.155-.031-.1.033-.282-.008-.383-.114-.287-.422-.443-.578-.706-.025-.044-.01-.091-.035-.139-.095-.185-.034-.482-.134-.664a3.117,3.117,0,0,0-.2-.309c-.034-.048-.045-.177-.081-.224-.014-.018-.035.005-.056,0a.067.067,0,0,1-.048-.025c-.075-.1-.294-.153-.366-.25s-.016-.247-.079-.347a1.143,1.143,0,0,1-.188-.369l-.056-.255-.144-.3c-.023-.047-.086-.021-.114-.061s.073-.281.051-.307-.056.01-.078-.013c-.151-.148-.453-.147-.6-.318-.172-.206-.342-.414-.52-.616Z" transform="translate(26.661 0)" fill="#33a02c" fill-rule="evenodd"/></g></svg>